<svg width="164" height="55" viewBox="0 0 164 55" fill="none" xmlns="http://www.w3.org/2000/svg">
<path d="M54.8618 26.4301C52.6774 26.4301 50.8031 25.8917 49.239 24.8149C47.6749 23.7113 46.4748 22.1769 45.6388 20.2118C44.8298 18.2467 44.4253 15.9586 44.4253 13.3474C44.4253 11.2208 44.6545 9.41726 45.113 7.93672C45.5984 6.42925 46.2321 5.17752 47.0142 4.18151C47.7963 3.18551 48.6457 2.40486 49.5626 1.83956C50.5065 1.27426 51.4369 0.883935 52.3538 0.668583C53.2707 0.426311 54.1067 0.305176 54.8618 0.305176C56.0214 0.305176 57.1271 0.48015 58.1788 0.830097C59.2305 1.15313 60.1744 1.65113 61.0104 2.3241C61.8734 2.97016 62.5745 3.79119 63.1139 4.78719L59.9991 8.13861L59.7564 8.42126L59.3924 8.09823C59.3654 7.88288 59.3249 7.66753 59.271 7.45217C59.244 7.23682 59.0957 6.95417 58.826 6.60423C58.5833 6.30812 58.3002 6.03893 57.9766 5.79666C57.6529 5.55439 57.2484 5.35249 56.763 5.19098C56.3046 5.02946 55.7382 4.94871 55.064 4.94871C54.5517 4.94871 54.0528 5.04292 53.5673 5.23136C53.0819 5.41979 52.6235 5.72936 52.192 6.16006C51.7875 6.56385 51.4234 7.08877 51.0998 7.73482C50.7762 8.35396 50.52 9.10769 50.3312 9.99602C50.1694 10.8844 50.0885 11.9073 50.0885 13.0648C50.0885 14.5992 50.2099 15.9182 50.4526 17.0219C50.6953 18.1256 51.0189 19.0408 51.4234 19.7676C51.8549 20.4944 52.3673 21.0328 52.9606 21.3828C53.5539 21.7327 54.1876 21.9077 54.8618 21.9077C55.1584 21.9077 55.4416 21.8942 55.7113 21.8673C55.9809 21.8135 56.2506 21.7596 56.5203 21.7058C56.79 21.625 57.0462 21.5174 57.2889 21.3828C57.5316 21.2213 57.7878 21.0463 58.0575 20.8578V17.0623H54.1741V12.4187H63.1543V23.8055C61.9408 24.8015 60.6194 25.4879 59.1901 25.8648C57.7878 26.2416 56.345 26.4301 54.8618 26.4301Z" fill="white"/>
<path d="M71.5683 26.4301C69.5187 26.4301 67.9141 25.9455 66.7545 24.9765C65.5949 23.9805 65.0151 22.6749 65.0151 21.0597C65.0151 20.0368 65.2309 19.0947 65.6623 18.2332C66.0938 17.3449 66.768 16.5777 67.6849 15.9317C68.6018 15.2587 69.7749 14.7338 71.2042 14.3569C72.6335 13.98 74.3459 13.7916 76.3415 13.7916C76.4224 13.7916 76.5708 13.7916 76.7865 13.7916C77.0022 13.7916 77.245 13.7916 77.5146 13.7916C77.7843 13.7916 78.0135 13.7916 78.2023 13.7916L78.3641 17.5872C78.2023 17.5872 77.9731 17.5872 77.6764 17.5872C77.3798 17.5872 77.0697 17.6006 76.7461 17.6276C76.4494 17.6276 76.2202 17.6276 76.0584 17.6276C74.8988 17.6276 73.9684 17.7083 73.2672 17.8698C72.5661 18.0044 72.0267 18.2063 71.6492 18.4755C71.2986 18.7178 71.0559 19.0004 70.921 19.3235C70.7862 19.6196 70.7188 19.9157 70.7188 20.2118C70.7188 20.5348 70.7727 20.8175 70.8806 21.0597C70.9885 21.302 71.1368 21.4904 71.3256 21.625C71.5143 21.7596 71.7435 21.8673 72.0132 21.9481C72.2829 22.0019 72.5661 22.0288 72.8627 22.0288C73.5099 22.0288 74.0628 21.9211 74.5212 21.7058C74.9797 21.4904 75.3572 21.1405 75.6539 20.656C75.9775 20.1445 76.2067 19.4984 76.3415 18.7178C76.5033 17.9371 76.5842 16.9815 76.5842 15.8509C76.5842 14.478 76.4494 13.4282 76.1797 12.7014C75.937 11.9746 75.573 11.49 75.0875 11.2478C74.6291 10.9786 74.0628 10.844 73.3886 10.844C72.5526 10.844 71.784 10.9651 71.0828 11.2074C70.3817 11.4227 69.6401 11.9342 68.858 12.7418L65.6219 9.43072C66.8354 8.32704 68.1299 7.55985 69.5052 7.12915C70.9076 6.69844 72.2694 6.48309 73.5908 6.48309C74.7504 6.48309 75.8426 6.61769 76.8674 6.88688C77.9191 7.12915 78.8495 7.54639 79.6586 8.13861C80.4946 8.73083 81.1418 9.55186 81.6002 10.6017C82.0857 11.6246 82.3284 12.9167 82.3284 14.478V25.9455H76.5438V24.4515C76.1932 24.7746 75.8426 25.0707 75.4921 25.3399C75.1684 25.5821 74.8044 25.784 74.3999 25.9455C74.0223 26.1071 73.6043 26.2282 73.1459 26.3089C72.6874 26.3897 72.1615 26.4301 71.5683 26.4301Z" fill="white"/>
<path d="M85.16 25.9455V6.92725H89.7714V8.01747C90.0951 7.61369 90.4187 7.30412 90.7423 7.08877C91.0659 6.87342 91.3895 6.72536 91.7131 6.64461C92.0637 6.53693 92.4008 6.48309 92.7244 6.48309C93.1289 6.48309 93.5199 6.53693 93.8975 6.64461C94.275 6.75228 94.6391 6.95417 94.9897 7.25028C95.3403 7.51947 95.6369 7.93672 95.8796 8.50202C96.2032 7.99056 96.5403 7.60023 96.8909 7.33104C97.2415 7.03493 97.646 6.81958 98.1045 6.68498C98.5899 6.55039 99.1292 6.48309 99.7225 6.48309C100.451 6.48309 101.057 6.61769 101.543 6.88688C102.055 7.12915 102.473 7.49255 102.797 7.9771C103.12 8.46164 103.35 9.06732 103.485 9.79413C103.646 10.5209 103.727 11.3554 103.727 12.2976V25.9455H98.9135V13.2263C98.9135 12.6072 98.8865 12.1092 98.8326 11.7323C98.8056 11.3285 98.7382 11.0324 98.6303 10.844C98.5494 10.6555 98.4011 10.5613 98.1854 10.5613C97.9426 10.5613 97.6999 10.6825 97.4572 10.9247C97.2145 11.1401 97.0123 11.5035 96.8505 12.0149C96.7156 12.4995 96.6482 13.159 96.6482 13.9935V25.9455H92.239V13.2667C92.239 12.1092 92.1716 11.342 92.0367 10.9651C91.9019 10.5882 91.6861 10.3998 91.3895 10.3998C91.1738 10.3998 90.9715 10.4671 90.7827 10.6017C90.6209 10.7363 90.4726 10.9516 90.3378 11.2478C90.2299 11.5169 90.1355 11.8669 90.0546 12.2976C90.0007 12.7014 89.9737 13.1725 89.9737 13.7108V25.9455H85.16Z" fill="white"/>
<path d="M115.296 26.4301C113.948 26.4301 112.68 26.2147 111.494 25.784C110.334 25.3264 109.31 24.6803 108.42 23.8459C107.557 23.0114 106.882 21.9884 106.397 20.7771C105.912 19.5388 105.669 18.1525 105.669 16.6181C105.669 15.0568 105.898 13.657 106.357 12.4187C106.842 11.1535 107.489 10.0902 108.298 9.22883C109.134 8.3405 110.105 7.66753 111.211 7.2099C112.316 6.72536 113.516 6.48309 114.811 6.48309C115.917 6.48309 116.968 6.68498 117.966 7.08877C118.991 7.49255 119.894 8.09823 120.676 8.9058C121.458 9.68645 122.079 10.669 122.537 11.8534C122.996 13.011 123.225 14.3434 123.225 15.8509C123.225 16.1739 123.225 16.5777 123.225 17.0623C123.225 17.5468 123.211 17.9371 123.184 18.2332H111.17C111.224 18.9062 111.386 19.485 111.656 19.9695C111.925 20.4271 112.262 20.8175 112.667 21.1405C113.098 21.4366 113.557 21.6654 114.042 21.8269C114.555 21.9615 115.067 22.0288 115.58 22.0288C116.119 22.0288 116.631 21.9884 117.117 21.9077C117.602 21.8269 118.074 21.6789 118.532 21.4635C118.991 21.2213 119.436 20.8848 119.867 20.4541L122.699 23.1998C122.052 23.9535 121.337 24.5727 120.555 25.0572C119.773 25.5418 118.937 25.8917 118.047 26.1071C117.157 26.3224 116.24 26.4301 115.296 26.4301ZM111.211 14.0339H117.804C117.804 13.4955 117.737 13.0379 117.602 12.661C117.467 12.2572 117.265 11.9342 116.995 11.6919C116.726 11.4227 116.389 11.2343 115.984 11.1266C115.58 10.992 115.121 10.9247 114.609 10.9247C114.15 10.9247 113.719 10.992 113.314 11.1266C112.937 11.2343 112.6 11.4227 112.303 11.6919C112.006 11.9342 111.764 12.2572 111.575 12.661C111.386 13.0379 111.265 13.4955 111.211 14.0339Z" fill="white"/>
<path d="M44.7489 54.2105V29.0547H49.9267L53.9314 40.078L57.8956 29.0143H63.1139V54.2105H58.3002V37.5746L55.3472 46.2559H52.3538L49.5222 37.5746V54.2105H44.7489Z" fill="white"/>
<path d="M71.5683 54.6951C69.5187 54.6951 67.9141 54.2105 66.7545 53.2414C65.5949 52.2454 65.0151 50.9398 65.0151 49.3247C65.0151 48.3018 65.2309 47.3596 65.6623 46.4982C66.0938 45.6099 66.768 44.8427 67.6849 44.1966C68.6018 43.5237 69.7749 42.9987 71.2042 42.6219C72.6335 42.245 74.3459 42.0566 76.3415 42.0566C76.4224 42.0566 76.5708 42.0566 76.7865 42.0566C77.0022 42.0566 77.245 42.0566 77.5146 42.0566C77.7843 42.0566 78.0135 42.0566 78.2023 42.0566L78.3641 45.8522C78.2023 45.8522 77.9731 45.8522 77.6764 45.8522C77.3798 45.8522 77.0697 45.8656 76.7461 45.8925C76.4494 45.8925 76.2202 45.8925 76.0584 45.8925C74.8988 45.8925 73.9684 45.9733 73.2672 46.1348C72.5661 46.2694 72.0267 46.4713 71.6492 46.7405C71.2986 46.9828 71.0559 47.2654 70.921 47.5884C70.7862 47.8845 70.7188 48.1806 70.7188 48.4768C70.7188 48.7998 70.7727 49.0824 70.8806 49.3247C70.9885 49.567 71.1368 49.7554 71.3256 49.89C71.5143 50.0246 71.7435 50.1323 72.0132 50.213C72.2829 50.2669 72.5661 50.2938 72.8627 50.2938C73.5099 50.2938 74.0628 50.1861 74.5212 49.9708C74.9797 49.7554 75.3572 49.4055 75.6539 48.9209C75.9775 48.4095 76.2067 47.7634 76.3415 46.9828C76.5033 46.2021 76.5842 45.2465 76.5842 44.1159C76.5842 42.743 76.4494 41.6932 76.1797 40.9664C75.937 40.2395 75.573 39.755 75.0875 39.5127C74.6291 39.2435 74.0628 39.1089 73.3886 39.1089C72.5526 39.1089 71.784 39.2301 71.0828 39.4723C70.3817 39.6877 69.6401 40.1992 68.858 41.0067L65.6219 37.6957C66.8354 36.592 68.1299 35.8248 69.5052 35.3941C70.9076 34.9634 72.2694 34.7481 73.5908 34.7481C74.7504 34.7481 75.8426 34.8827 76.8674 35.1518C77.9191 35.3941 78.8495 35.8114 79.6586 36.4036C80.4946 36.9958 81.1418 37.8168 81.6002 38.8667C82.0857 39.8896 82.3284 41.1817 82.3284 42.743V54.2105H76.5438V52.7165C76.1932 53.0395 75.8426 53.3356 75.4921 53.6048C75.1684 53.8471 74.8044 54.049 74.3999 54.2105C74.0223 54.372 73.6043 54.4932 73.1459 54.5739C72.6874 54.6547 72.1615 54.6951 71.5683 54.6951Z" fill="white"/>
<path d="M94.8683 54.6951C93.6278 54.6951 92.4412 54.5874 91.3086 54.372C90.2029 54.1836 89.1782 53.874 88.2343 53.4433C87.2904 52.9857 86.4274 52.3935 85.6454 51.6667L87.9107 47.3058L88.0725 46.9828L88.4365 47.1846C88.5174 47.3731 88.5983 47.5884 88.6793 47.8307C88.7871 48.0461 89.0029 48.3018 89.3265 48.5979C90.0816 49.1632 90.9041 49.5939 91.794 49.89C92.7109 50.1861 93.7492 50.3342 94.9088 50.3342C95.5021 50.3342 96.001 50.2669 96.4055 50.1323C96.837 49.9977 97.1606 49.8227 97.3763 49.6074C97.619 49.3651 97.7404 49.1094 97.7404 48.8402C97.7404 48.571 97.646 48.3422 97.4572 48.1537C97.2954 47.9653 97.0392 47.8038 96.6886 47.6692C96.365 47.5077 95.9336 47.3462 95.3942 47.1846C94.8548 47.0231 94.2211 46.8482 93.493 46.6597C92.1446 46.3098 90.9715 45.8791 89.9737 45.3676C89.0029 44.8561 88.2478 44.2235 87.7084 43.4698C87.1691 42.6892 86.8994 41.7605 86.8994 40.6837C86.8994 39.58 87.2365 38.584 87.9107 37.6957C88.5849 36.8074 89.5018 36.094 90.6614 35.5556C91.848 35.0172 93.1963 34.7481 94.7065 34.7481C95.4347 34.7481 96.1493 34.8154 96.8505 34.9499C97.5786 35.0576 98.2663 35.2326 98.9135 35.4749C99.5607 35.6902 100.181 35.9863 100.774 36.3632C101.368 36.7131 101.92 37.1304 102.433 37.6149L99.8034 41.4509L99.5607 41.7739L99.1966 41.4913C99.1697 41.2759 99.1023 41.074 98.9944 40.8856C98.9135 40.6972 98.7112 40.4549 98.3876 40.1588C97.8752 39.8088 97.3089 39.5666 96.6886 39.432C96.0954 39.2705 95.4616 39.1897 94.7874 39.1897C94.0054 39.1897 93.3177 39.3108 92.7244 39.5531C92.1311 39.7954 91.8345 40.1588 91.8345 40.6433C91.8345 40.9663 91.9963 41.2355 92.3199 41.4509C92.6435 41.6662 93.1154 41.8681 93.7357 42.0566C94.3829 42.2181 95.1785 42.4065 96.1223 42.6219C97.6325 42.9449 98.873 43.3891 99.8439 43.9544C100.815 44.4927 101.529 45.1523 101.988 45.9329C102.473 46.7136 102.716 47.6153 102.716 48.6383C102.716 49.715 102.406 50.7245 101.786 51.6667C101.165 52.5819 100.262 53.3222 99.0753 53.8875C97.9157 54.4259 96.5134 54.6951 94.8683 54.6951Z" fill="white"/>
<path d="M116.469 54.6951C115.472 54.6951 114.555 54.5335 113.719 54.2105C112.883 53.9144 112.168 53.4029 111.575 52.6761C110.982 51.9224 110.537 50.8995 110.24 49.6074C109.943 48.3152 109.835 46.6732 109.916 44.6812L110.483 30.9525L116.308 30.1853L116.672 30.1449L116.712 30.5891C116.604 30.7775 116.496 30.9659 116.389 31.1544C116.281 31.3428 116.213 31.6658 116.186 32.1235L115.701 38.3417H115.944L115.62 44.3985C115.539 45.9329 115.593 47.1308 115.782 47.9922C115.998 48.8267 116.294 49.4055 116.672 49.7285C117.076 50.0515 117.494 50.213 117.926 50.213C118.762 50.213 119.517 50.0381 120.191 49.6881C120.892 49.3382 121.499 48.9478 122.011 48.5171L122.982 52.5146C122.065 53.1876 121.067 53.726 119.989 54.1297C118.937 54.5066 117.764 54.6951 116.469 54.6951ZM106.437 35.1922H121.728L121.647 39.6339H106.357L106.437 35.1922Z" fill="white"/>
<path d="M135.522 54.6951C134.174 54.6951 132.906 54.4797 131.72 54.049C130.56 53.5914 129.535 52.9453 128.645 52.1108C127.782 51.2763 127.108 50.2534 126.623 49.0421C126.137 47.8038 125.895 46.4174 125.895 44.8831C125.895 43.3218 126.124 41.922 126.582 40.6837C127.068 39.4185 127.715 38.3552 128.524 37.4938C129.36 36.6055 130.331 35.9325 131.437 35.4749C132.542 34.9903 133.742 34.7481 135.037 34.7481C136.142 34.7481 137.194 34.9499 138.192 35.3537C139.217 35.7575 140.12 36.3632 140.902 37.1708C141.684 37.9514 142.304 38.934 142.763 40.1184C143.221 41.2759 143.451 42.6084 143.451 44.1159C143.451 44.4389 143.451 44.8427 143.451 45.3272C143.451 45.8118 143.437 46.2021 143.41 46.4982H131.396C131.45 47.1712 131.612 47.7499 131.881 48.2345C132.151 48.6921 132.488 49.0824 132.893 49.4055C133.324 49.7016 133.783 49.9304 134.268 50.0919C134.78 50.2265 135.293 50.2938 135.805 50.2938C136.345 50.2938 136.857 50.2534 137.342 50.1727C137.828 50.0919 138.3 49.9438 138.758 49.7285C139.217 49.4862 139.662 49.1497 140.093 48.719L142.925 51.4648C142.278 52.2185 141.563 52.8376 140.781 53.3222C139.999 53.8067 139.163 54.1567 138.273 54.372C137.383 54.5874 136.466 54.6951 135.522 54.6951ZM131.437 42.2988H138.03C138.03 41.7605 137.963 41.3028 137.828 40.926C137.693 40.5222 137.491 40.1992 137.221 39.9569C136.951 39.6877 136.614 39.4993 136.21 39.3916C135.805 39.257 135.347 39.1897 134.834 39.1897C134.376 39.1897 133.944 39.257 133.54 39.3916C133.162 39.4993 132.825 39.6877 132.529 39.9569C132.232 40.1992 131.989 40.5222 131.801 40.926C131.612 41.3028 131.49 41.7605 131.437 42.2988Z" fill="white"/>
<path d="M147.617 35.1922H153.483V40.4011L152.835 40.2395C152.916 39.432 153.119 38.7052 153.442 38.0591C153.793 37.3861 154.238 36.8074 154.777 36.3228C155.316 35.8114 155.91 35.421 156.557 35.1518C157.231 34.8827 157.919 34.7481 158.62 34.7481C159.726 34.7481 160.71 34.923 161.573 35.273C162.436 35.6229 163.245 36.1882 164 36.9689L161.654 41.8547L161.532 42.1777L161.128 42.0162C161.02 41.8008 160.939 41.572 160.885 41.3298C160.831 41.0606 160.656 40.7645 160.359 40.4414C160.009 40.1453 159.604 39.903 159.146 39.7146C158.714 39.4993 158.229 39.3916 157.69 39.3916C157.069 39.3916 156.489 39.4858 155.95 39.6742C155.438 39.8627 154.993 40.1588 154.615 40.5626C154.238 40.9664 153.941 41.4778 153.725 42.0969C153.51 42.7161 153.402 43.4564 153.402 44.3178V54.2105H147.617V35.1922Z" fill="white"/>
<path fill-rule="evenodd" clip-rule="evenodd" d="M8.84976 0.542369C8.73136 0.672878 8.59966 0.840284 8.55725 0.914605C8.51474 0.98882 8.8723 3.01804 9.35187 5.42381C9.99439 8.64753 10.2782 9.8666 10.4307 10.059L10.6378 10.32H17.85H25.0622L25.27 10.058C25.4238 9.86397 25.7034 8.65944 26.3465 5.41896C26.8244 3.01171 27.1816 0.982916 27.1404 0.91081C26.9249 0.533198 26.6112 0.305176 26.3071 0.305176C26.0212 0.305176 25.7441 0.547746 24.1387 2.20272C23.1263 3.24637 22.2388 4.10027 22.1664 4.10027C22.094 4.10027 21.1786 3.24637 20.1322 2.20272C18.3653 0.440323 18.2023 0.305176 17.8452 0.305176C17.4875 0.305176 17.3291 0.437582 15.5736 2.20272C14.5357 3.24637 13.6225 4.10027 13.5443 4.10027C13.4661 4.10027 12.5751 3.24637 11.5643 2.20272C9.954 0.540261 9.68541 0.305176 9.39566 0.305176C9.18744 0.305176 8.98539 0.39299 8.84976 0.542369ZM1.74317 12.8887C1.02689 13.2195 0.355572 13.9879 0.139806 14.7239C-0.00708555 15.2253 -0.0221784 15.9779 0.0215063 20.6366C0.0760326 26.4503 0.14427 27.3653 0.752774 30.4551C2.69319 40.3075 8.49858 48.8431 16.5545 53.688C17.1566 54.05 17.6595 54.2799 17.85 54.2799C18.4156 54.2799 21.154 52.4998 23.1644 50.8254C24.4755 49.7334 26.5986 47.5617 27.7229 46.1626C31.2697 41.7485 33.8228 36.1957 34.9448 30.4551C35.5757 27.2272 35.7059 25.378 35.7063 19.6424C35.7065 14.6029 35.6919 14.4876 34.9405 13.6409C34.6868 13.355 34.2599 13.0287 33.9568 12.8887L33.4213 12.6413H17.85H2.27866L1.74317 12.8887ZM26.9032 23.198C27.7473 23.5905 28.4148 24.2385 28.8243 25.0631L29.1698 25.7586L29.2027 28.5867C29.2396 31.7483 29.1862 32.1863 28.6312 33.2868C27.8247 34.8858 26.0804 35.9344 24.2273 35.9344C21.9833 35.9344 19.9486 34.3821 19.3942 32.2472L19.271 31.7728H17.85H16.429L16.3058 32.2472C15.7514 34.3821 13.7167 35.9344 11.4727 35.9344C9.20126 35.9344 7.29284 34.4699 6.6397 32.2255C6.49185 31.7174 6.46974 31.169 6.49748 28.694C6.5299 25.7904 6.53266 25.7587 6.80668 25.1793C7.29231 24.1525 8.09851 23.4283 9.16618 23.0599C9.6836 22.8814 10.2481 22.8707 18.0094 22.8934L26.3 22.9176L26.9032 23.198ZM9.65352 24.4849C9.05575 24.6988 8.62985 25.0482 8.31098 25.5863L8.01826 26.0802V28.9287V31.7773L8.36593 32.4776C8.55704 32.8628 8.88973 33.3314 9.10507 33.5189C10.4793 34.7156 12.466 34.7156 13.8402 33.5189C14.3528 33.0727 14.8499 32.0484 14.9644 31.2027C15.0263 30.7456 15.119 30.4814 15.2509 30.3857C15.4005 30.2773 16.0068 30.2443 17.85 30.2443C19.6932 30.2443 20.2995 30.2773 20.4491 30.3857C20.581 30.4814 20.6737 30.7456 20.7356 31.2027C20.996 33.1258 22.3921 34.4069 24.2273 34.4069C25.6199 34.4069 26.7135 33.7278 27.3341 32.4776L27.6817 31.7773V28.9205V26.0636L27.3601 25.5476C27.1607 25.2279 26.8406 24.9103 26.5182 24.7125L25.9979 24.3935L18.0178 24.3704C11.6762 24.3521 9.95889 24.3756 9.65352 24.4849ZM11.9551 26.1756C12.1018 26.282 12.1749 26.4974 12.2146 26.9399L12.2698 27.5561L12.8911 27.6109C13.574 27.6711 13.811 27.8607 13.811 28.3467C13.811 28.8327 13.574 29.0223 12.8911 29.0825L12.2698 29.1374L12.2146 29.7535C12.1539 30.4308 11.9626 30.6659 11.4727 30.6659C10.9827 30.6659 10.7914 30.4308 10.7308 29.7535L10.6755 29.1374L10.0542 29.0825C9.37132 29.0223 9.1343 28.8327 9.1343 28.3467C9.1343 27.8607 9.37132 27.6711 10.0542 27.6109L10.6755 27.5561L10.7308 26.9399C10.7914 26.2626 10.9827 26.0275 11.4727 26.0275C11.6257 26.0275 11.8428 26.0941 11.9551 26.1756ZM23.6819 26.7127C23.9084 26.9156 24.1538 27.0817 24.2273 27.0817C24.3009 27.0817 24.5463 26.9156 24.7728 26.7127C25.8128 25.7808 26.8144 26.7742 25.8748 27.8057C25.4301 28.294 25.4156 28.44 25.7786 28.7764C26.4062 29.3578 26.4878 29.9774 25.9801 30.3073C25.6329 30.5329 25.2828 30.4377 24.7698 29.9781C24.5449 29.7766 24.3009 29.6117 24.2273 29.6117C24.1538 29.6117 23.9084 29.7778 23.6819 29.9807C22.6418 30.9126 21.6403 29.9192 22.5799 28.8877C22.7845 28.6631 22.9519 28.4197 22.9519 28.3467C22.9519 28.2738 22.7845 28.0303 22.5799 27.8057C21.6403 26.7742 22.6418 25.7808 23.6819 26.7127Z" fill="#D44C54"/>
</svg>
